<svg xmlns="http://www.w3.org/2000/svg">
    <symbol id="icon-amsterdam" viewBox="0 0 80 80">
      <path d="M42.505 49.916a.5.5 0 0 0-.5-.5h-4a.5.5 0 0 0-.5.5v7a.5.5 0 0 0 .5.5h4a.5.5 0 0 0 .5-.5v-7zm-4 .5h3v6h-3v-6zm5.449 9h-8a.5.5 0 1 0 0 1h8a.5.5 0 0 0 0-1zm2.551-22.5a.5.5 0 0 0-.5-.5h-12a.5.5 0 0 0-.5.5v4a.5.5 0 0 0 .5.5h12a.5.5 0 0 0 .5-.5v-4zm-4 .5h3v3h-3v-3zm-4 0h3v3h-3v-3zm-4 0h3v3h-3v-3zm18-16.668V4.916c0-.277-.274-.5-.551-.5h-12c-.276 0-.449.223-.449.5v12.99c-15.5.277-28.354 13.1-28.354 28.832 0 15.906 12.928 28.846 28.833 28.846 15.906 0 28.866-12.939 28.866-28.846 0-11.435-6.845-21.326-16.345-25.99zm-.043 20.668l-.811-2h15.186c.18.656.336 1.324.467 2H52.462zm13.043 1v8h-3v-8h3zm-4 0v8h-3v-8h3zm-4 0v8h-3v-8h3zm-6.929 27l.667 2h-8.738v-2h8.071zm-8.071-1v-2h8.071l.667 2h-8.738zm8.23 4c-2.586 1.088-5.23 1.793-8.23 2.053v-2.053h8.23zm-22.105-7l.667-2h21.279l.667 2H28.63zm8.875 7v2.049a27.24 27.24 0 0 1-8.3-2.049h8.3zm-8.875-1l.667-2h8.208v2H28.63zm8.875-3H28.63l.667-2h8.208v2zm-10.915-6l2.763-15h21.168l2.763 15H26.59zm4.915-16v-2h17v2h-17zm19.924.408a.5.5 0 0 0-.492-.408h-1.432v-2h3.432a.5.5 0 0 0 .429-.773l-.497-1.227h.637v8H52.09l-.661-3.592zm15.076-4.408h.975c.221 1.408.338 2.852.338 4.322 0 1.246-.088 2.473-.248 3.678h-1.064v-8zm-23-37h8v3h-8v-3zm0 4h8v3h-8v-3zm0 4h8v3h-8v-3zm0 4h8v3h-8v-3zm0 4h8v3h-8v-3zm0 4h8v3h-8v-3zm0 4h8.449c.276 0 .551-.225.551-.5v-7.061c6.5 3.363 11.769 9.33 14.038 16.561H51.245l-1.846-4.551c-.053-.131-.131-.232-.263-.281l-5.632-2.111v-2.057zm-3-24h2V31.1l-2-.748V5.416zm8.051 29.029l3.639 8.971H27.679l3.639-8.971 8.619-3.219 8.619 3.219zm-34.439 1.971h15.321l-.811 2H13.396c.213-.68.458-1.346.721-2zm7.388-9v8h-3v-6.332c.5-.578.926-1.131 1.443-1.668h1.557zm-6.965 8c.798-1.785 1.965-3.471 2.965-5.033v5.033H14.54zm7.965 0v-8h3v8h-3zm4 0v-8h3v8h-3zm13-5.076l-8.718 3.244a.473.473 0 0 0-.276.281l-.006.047v-6.996c0-.277-.274-.5-.551-.5h-8.99c4.862-4.551 11.541-7.379 18.541-7.51V30.34zM17.472 57.859c0-.441.121-.873.347-1.254.614.484 1.372.754 2.153.754s1.539-.27 2.153-.754c.226.381.347.812.347 1.254 0 1.377-1.121 2.5-2.5 2.5s-2.5-1.123-2.5-2.5zm3.033 3.463c1.5-.236 2.992-1.697 2.992-3.463 0-.857-.335-1.658-.92-2.307-.095-.105-.236-.137-.378-.137h-.003c-.143 0-.279.031-.373.137a2.475 2.475 0 0 1-3.702-.022.515.515 0 0 0-.743-.004 3.457 3.457 0 0 0-.882 2.334c0 1.752 1.508 3.203 3.008 3.455v4.225c-4.5-4.957-7.354-11.561-7.354-18.803 0-2.535.321-4.988.958-7.322h15.113l-1.748 4.311a.505.505 0 0 0 .048.469.504.504 0 0 0 .415.221h3.568v2h-1.568a.5.5 0 0 0-.492.408l-2.947 16a.504.504 0 0 0 .492.592h2.254l-.781 2.342a.5.5 0 0 0 .474.658h.307l-.781 2.342a.5.5 0 0 0 .474.658h.307l-.711 2.207c-2.609-1.312-5.027-3.018-7.027-5.049v-5.252zm18 13.219v-8.125h3v8.127a27.235 27.235 0 0 1-3-.002zm21.467-14.182a2.503 2.503 0 0 1-2.5-2.5c0-.441.121-.873.347-1.254.614.484 1.372.754 2.153.754s1.539-.27 2.153-.754c.226.381.347.812.347 1.254 0 1.377-1.121 2.5-2.5 2.5zm.533.963c1.5-.236 2.992-1.697 2.992-3.463 0-.857-.335-1.658-.92-2.307-.095-.105-.236-.137-.378-.137h-.003c-.143 0-.279.031-.373.137a2.475 2.475 0 0 1-3.702-.022.515.515 0 0 0-.743-.004 3.457 3.457 0 0 0-.882 2.334c0 1.752 1.508 3.203 3.008 3.455v5.291c-2 2.031-4.484 3.736-7.104 5.047l-.771-2.238h.307c.004 0 .007-.002.01 0a.5.5 0 0 0 .435-.748l-.751-2.252h.317a.5.5 0 0 0 .435-.748l-.751-2.252h2.254a.5.5 0 0 0 .492-.592l-2.102-11.408h15.143c-.92 5.406-3.412 10.289-6.912 14.162v-4.255z"/>
    </symbol>
    <symbol id="icon-austin" viewBox="0 0 80 80">
      <path d="M50.455 19.869l-.001-2.444h1.5a.503.503 0 0 0 .253-.938l-9.896-5.801c.116-.295.194-.615.194-.934 0-1.217-1-2.232-2-2.459V4.916a.5.5 0 0 0-1 0V7.3c-1.5.239-2 1.242-2 2.441 0 .311.05.623.158.911l-9.959 5.832a.507.507 0 0 0 .249.941h1.552v2.46c-11 4.213-18.347 14.659-18.347 26.852 0 15.906 12.933 28.848 28.838 28.848 15.906 0 28.843-12.938 28.843-28.844.001-12.215-7.639-22.673-18.384-26.872zM62.35 40.668c-.248-.436-.396-1.027-.396-1.586 0-1.908 1.542-3.459 3.438-3.459.02 0 .074.012.129.02a27.454 27.454 0 0 1 2.28 9.781h-9.347c-1.103 0-2-.896-2-2 0-1.102.897-2 2-2h3.461a.506.506 0 0 0 .435-.756zM24.946 57.424h3.508c1.103 0 2 .896 2 2s-.897 2-2 2H16.34c-1.49-2-2.63-5.027-3.342-7.828.466-1.074 1.502-1.816 2.706-1.816.072 0 .143-.008.213-.016.033-.004.062-.008.107-.008a.5.5 0 0 0 .472-.229c.958-1.494 2.57-2.422 4.208-2.422 2.851 0 5 2.051 5 4.77 0 1.467-.531 2.541-.758 2.541a.504.504 0 0 0 0 1.008zm8.06-34.008a.5.5 0 0 0 .5-.5v-5.491h3v13.491a.5.5 0 0 0 1 0V17.425h5v4.491a.5.5 0 0 0 1 0v-4.491h3v7.491a.5.5 0 0 0 1 0v-7.491h1.948l.006 17H30.506v-17h2v5.491a.5.5 0 0 0 .5.5zm7.5 30.008V51.23c1.5-.086 3.5-.641 5-1.553v3.746h-5zm5 1v2h-5v-2h5zm-5.539-4.164c-5.007 0-9.102-3.836-9.452-8.836h1.991v1.492a.5.5 0 0 0 1 0v-1.492h3v3.492a.5.5 0 0 0 1 0v-3.492h5v2.492a.5.5 0 0 0 1 0v-2.492h5.916a9.437 9.437 0 0 1-9.455 8.836zm-.461 4.164v2h-5v-2h5zm-5-1v-3.742c1.5.91 3 1.463 5 1.551v2.191h-5zm.598-13l4.85-4.85 4.85 4.85h-9.7zm3.586-5l-4.736 4.736-4.736-4.736h9.472zm-5.886 5h-4.298v-4.34l4.298 4.34zm.702 8.549v7.941c0 .277.189.51.466.51h5.534v7H28.314l.183-2.006a3.004 3.004 0 0 0 2.957-3 3.003 3.003 0 0 0-2.416-2.943l1.12-12.098a10.521 10.521 0 0 0 3.348 4.596zM28.184 65.85l8.563 8.539a27.628 27.628 0 0 1-9.096-2.697l.533-5.842zm10.115 8.677c-.014-.02-.029-.035-.046-.053l-9.089-9.051h10.342v9.146c-.5-.007-.813-.018-1.207-.042zm2.207-9.103h10.24l-9.114 9.113c-.379.021-1.126.027-1.126.035v-9.148zm2.66 8.972l8.557-8.543.534 5.875a27.592 27.592 0 0 1-9.091 2.668zm-2.66-9.972v-7h5.466c.276 0 .534-.232.534-.51v-7.941c1.5-1.176 2.61-2.73 3.284-4.525l1.801 19.977H40.506zm6.598-24l4.401-4.375v4.375h-4.401zm-1.15-.263l-4.736-4.736h9.473l-4.737 4.736zM39.989 8.245c.827 0 1.5.681 1.5 1.512 0 .229-.053.668-.15.668h-2.696c-.098 0-.153-.447-.153-.679a1.502 1.502 0 0 1 1.499-1.501zm-1.658 3.18h3.25l8.531 5H29.797l8.534-5zm-8.825 9.543v13.457h-1.534c-.276 0-.466.215-.466.492v6c0 .275.189.507.466.507h1.435l-1.365 15h-1.847c.359-.5.51-1.775.51-2.545 0-3.234-2.636-5.771-6-5.771-1.893 0-3.749 1.014-4.904 2.664-.031.002-.063.006-.096.006a3.939 3.939 0 0 0-3.021 1.424 27.88 27.88 0 0 1-.524-5.465c-.001-11.631 6.846-21.61 17.346-25.769zM16.989 62.424h10.506l-.799 8.785c-3.889-2.121-7.217-4.785-9.707-8.785zm36.226 8.818l-2.713-29.818h1.47c.276 0 .534-.232.534-.507v-6c0-.277-.258-.492-.534-.492H50.46l-.005-13.473a28.013 28.013 0 0 1 14.606 13.692c-2.293.17-4.107 2.098-4.107 4.445 0 .449.072 1.336.205 1.336h-2.705c-1.654 0-3 1.345-3 3s1.346 3 3 3h9.375c.001.5.006.213.006.32 0 10.569-5.921 19.78-14.62 24.497z"/>
    </symbol>
    <symbol id="icon-berlin" viewBox="0 0 80 80">
      <path d="M40.482 17.904v-2.489h1.5a.5.5 0 0 0 0-1h-1.5v-9.5a.5.5 0 0 0-1 0v9.5h-1.5a.5.5 0 0 0 0 1h1.5v2.49c-15.668.278-28.329 13.101-28.329 28.833 0 15.906 12.94 28.846 28.846 28.846s28.847-12.939 28.847-28.846c0-15.743-12.681-28.574-28.364-28.834zm5.13 22.307c.09.096.22.15.354.15.131 0 .26-.055.351-.146a.506.506 0 0 0 .134-.277 9.5 9.5 0 0 1 2.678 4.458.516.516 0 0 0-.517.109.5.5 0 0 0 0 .705.487.487 0 0 0 .7.004c.094.535.152 1.082.152 1.645 0 .137-.016.271-.021.406a.491.491 0 0 0-.127-.26.515.515 0 0 0-.705 0 .5.5 0 0 0 0 .705.487.487 0 0 0 .705 0 .466.466 0 0 0 .114-.189 9.455 9.455 0 0 1-.32 1.871.51.51 0 0 0-.499.113.5.5 0 0 0-.146.355c0 .018.009.035.011.055h-2.022c.003-.02.012-.037.012-.055a.492.492 0 0 0-.149-.355.515.515 0 0 0-.705 0 .49.49 0 0 0-.146.355c0 .018.009.035.011.055h-2.026c.002-.02.011-.037.011-.055 0-.135-.05-.26-.145-.355a.512.512 0 0 0-.705 0 .503.503 0 0 0-.15.355c0 .018.01.035.012.055h-2.022c.002-.02.011-.037.011-.055 0-.135-.05-.26-.145-.355a.512.512 0 0 0-.705 0 .503.503 0 0 0-.15.355c0 .018.01.035.012.055h-2.019c.003-.02.012-.037.012-.055a.503.503 0 0 0-.149-.355.515.515 0 0 0-.705 0 .5.5 0 0 0-.146.355c0 .018.009.035.011.055h-2.022c.003-.02.012-.037.012-.055a.492.492 0 0 0-.149-.355.515.515 0 0 0-.705 0 .493.493 0 0 0-.15.355c0 .018.01.035.012.055h-2.022c.002-.02.011-.037.011-.055 0-.135-.05-.26-.145-.355a.502.502 0 0 0-.489-.113 9.397 9.397 0 0 1-.281-1.477h7.918c1.654 0 3-1.346 3-3s-1.346-3-3-3h-5.636a3.752 3.752 0 0 0-.231-1.037c.271-.336.565-.65.88-.945a.478.478 0 0 0 .135.277c.09.096.22.15.354.15a.503.503 0 0 0 .5-.5.492.492 0 0 0-.149-.355.458.458 0 0 0-.214-.113 9.445 9.445 0 0 1 5.361-2.018c.004.125.056.25.147.336a.49.49 0 0 0 .705 0 .474.474 0 0 0 .14-.326 9.433 9.433 0 0 1 5.362 2.008.439.439 0 0 0-.207.113.49.49 0 0 0-.146.355.472.472 0 0 0 .142.351zm-5.613 34.373a28.1 28.1 0 0 1-2.989-.162l.222-5.006h2.251v2.5a.5.5 0 0 0 1 0v-2.5h2.215l.224 5.016c-.962.099-1.936.152-2.923.152zm-4.517-6.168v-2h9v2h-9zm1.927-3l.089-2h4.934l.089 2h-5.112zm-1.927-3v-2h9v2h-9zm2.194-3l.102-2.295c.706.15 1.436.238 2.188.238.75 0 1.48-.082 2.188-.232l.102 2.289h-4.58zm2.289-3.057a9.437 9.437 0 0 1-6.334-2.443h12.672a9.45 9.45 0 0 1-6.338 2.443zm-7.294-3.443a9.547 9.547 0 0 1-1.283-2h17.154a9.564 9.564 0 0 1-1.265 2H32.671zM20.36 42.168c-.248-.434-.396-1.029-.396-1.593a3.449 3.449 0 0 1 3.438-3.451c1.6 0 2.972 1.088 3.338 2.645a.497.497 0 0 0 .318.355.506.506 0 0 0 .472-.072 2.653 2.653 0 0 1 1.622-.562c1.481 0 2.688 1.217 2.688 2.712 0 .029-.005.08-.009.111a.501.501 0 0 0 .489.604h6.145c1.103 0 2 .896 2 2s-.897 2-2 2h-22a2 2 0 0 1 0-4h3.461a.502.502 0 0 0 .434-.749zm24.122-4.773a10.435 10.435 0 0 0-4.518-1.035c-1.605 0-3.124.365-4.482 1.016v-2.959h9v2.978zm-2-3.978h-5v-5h5v5zm-7-6v-2h9v2h-9zM12.153 46.738c0-15.181 12.213-27.555 27.329-27.833v2.511h-1.5a.5.5 0 1 0 0 1h1.5v2h-4.5a.5.5 0 0 0-.5.5v3a.5.5 0 0 0 .5.5h1.5v5h-1.5a.5.5 0 0 0-.5.5v4.004a10.682 10.682 0 0 0-2.4 2.033 3.667 3.667 0 0 0-2.93-1.465c-.574 0-1.133.137-1.646.398a4.41 4.41 0 0 0-4.104-2.764c-2.447 0-4.438 1.998-4.438 4.451 0 .455.072.916.205 1.341h-2.705c-1.654 0-3 1.346-3 3s1.346 3 3 3h13.078a10.517 10.517 0 0 0 7.245 8.941l-.114 2.559h-1.691a.5.5 0 0 0-.5.5v3a.5.5 0 0 0 .5.5h1.512l-.089 2h-1.423a.5.5 0 0 0-.5.5v3a.5.5 0 0 0 .5.5h1.244l-.219 4.879c-13.469-1.941-23.854-13.557-23.854-27.555zm31.768 27.565l-.219-4.887h1.28c.275 0 .5-.225.5-.5v-3a.5.5 0 0 0-.5-.5h-1.459l-.089-2h1.548c.275 0 .5-.225.5-.5v-3a.5.5 0 0 0-.5-.5h-1.727l-.114-2.551c4.241-1.35 7.323-5.324 7.323-10.006 0-3.766-2-7.066-4.986-8.919 0-.008.004-.016.004-.023v-4a.5.5 0 0 0-.5-.5h-1.5v-5h1.5c.275 0 .5-.225.5-.5v-3a.5.5 0 0 0-.5-.5h-4.5v-2h1.5a.5.5 0 0 0 0-1h-1.5v-2.512c15.132.26 27.363 12.643 27.363 27.834 0 2.99-.479 5.869-1.355 8.572a3.645 3.645 0 0 0-3.705-1.237 5.733 5.733 0 0 0-5.201-3.283c-3.19 0-5.786 2.607-5.786 5.812 0 .287.026.541.071.812h-.404c-1.654 0-3 1.346-3 3s1.346 3 3 3h10.82c-4.341 5.786-10.879 9.829-18.364 10.888zm19.078-11.887H51.465a2 2 0 0 1 0-4h1.009c.15 0 .293-.068.388-.186a.492.492 0 0 0 .102-.416c-.102-.494-.165-.814-.165-1.211 0-2.654 2.147-4.812 4.786-4.812 1.986 0 3.735 1.207 4.455 3.074a.502.502 0 0 0 .649.287 2.67 2.67 0 0 1 .98-.186c1.018 0 1.947.609 2.409 1.529a27.803 27.803 0 0 1-3.079 5.921zM39.962 31.362a.496.496 0 0 0 .355-.15.489.489 0 0 0 0-.705.515.515 0 0 0-.705 0 .493.493 0 0 0 0 .709.51.51 0 0 0 .35.146zm2.65 15.644a.503.503 0 0 0-.15.355c0 .129.056.26.15.35a.49.49 0 0 0 .705 0 .485.485 0 0 0 .145-.35c0-.135-.05-.26-.145-.355a.511.511 0 0 0-.705 0zm3 0a.49.49 0 0 0-.146.355c0 .129.051.26.146.35.09.096.22.15.354.15a.503.503 0 0 0 .5-.5.492.492 0 0 0-.149-.355.515.515 0 0 0-.705 0zm-3-2.5a.503.503 0 0 0-.15.355c0 .129.056.26.15.35a.49.49 0 0 0 .705 0 .485.485 0 0 0 .145-.35c0-.135-.05-.26-.145-.355a.511.511 0 0 0-.705 0zm3 0a.49.49 0 0 0-.146.355c0 .129.051.26.146.35.09.096.22.15.354.15a.503.503 0 0 0 .5-.5.492.492 0 0 0-.149-.355.515.515 0 0 0-.705 0zm-3-2.5a.503.503 0 0 0-.15.355c0 .129.056.26.15.35a.49.49 0 0 0 .705 0 .485.485 0 0 0 .145-.35c0-.135-.05-.26-.145-.355a.511.511 0 0 0-.705 0zm3 .705c.09.096.22.15.354.15a.503.503 0 0 0 .5-.5.492.492 0 0 0-.149-.355.515.515 0 0 0-.705 0 .49.49 0 0 0-.146.355c.001.129.052.26.146.35zm-6-3.205a.503.503 0 0 0-.15.355c0 .129.056.26.15.35a.49.49 0 0 0 .705 0 .485.485 0 0 0 .145-.35c0-.135-.05-.26-.145-.355a.513.513 0 0 0-.705 0zm-3 0a.5.5 0 0 0 0 .705.487.487 0 0 0 .705 0 .489.489 0 0 0 0-.705.517.517 0 0 0-.705 0zm6 0a.503.503 0 0 0-.15.355c0 .129.056.26.15.35a.49.49 0 0 0 .705 0 .485.485 0 0 0 .145-.35c0-.135-.05-.26-.145-.355a.513.513 0 0 0-.705 0z"/>
    </symbol>
    <symbol id="icon-tokyo" viewBox="0 0 80 80">
      <path d="M50.35 19.818c.69-.789 1.125-1.799 1.134-2.873.005-.029 0-2.029 0-2.029a.5.5 0 0 0-1 0v1.346c-3.888-.723-8.834-2.252-9.821-3.846h1.321a.5.5 0 0 0 0-1h-1.5v-2h1.5a.5.5 0 0 0 0-1h-1.5v-3.5a.5.5 0 0 0-1 0v3.5h-1.5a.5.5 0 1 0 0 1h1.5v2h-1.5a.5.5 0 1 0 0 1h1.32c-.987 1.594-5.934 3.121-9.82 3.846v-1.346a.5.5 0 0 0-1 0v2c0 1.09.435 2.117 1.131 2.916-10.788 4.178-18.46 14.66-18.46 26.906 0 15.906 12.94 28.846 28.846 28.846s28.846-12.939 28.846-28.846c-.001-12.259-7.691-22.75-18.497-26.92zm17.496 26.92A27.72 27.72 0 0 1 61.5 64.416h-1.017v-3.111a2.505 2.505 0 0 0 1.982-2.445c0-1.379-1.122-2.5-2.5-2.5a2.502 2.502 0 0 0-2.5 2.5c0 1.213.869 2.225 2.018 2.451v3.105h-4v-3.5a.5.5 0 0 0-.5-.5h-4.5v-3h2.482c2.356 0 4.448-2.035 4.518-4.381.01-.039 0-2.119 0-2.119a.5.5 0 0 0-1 0v1.5h-4v-3.5a.5.5 0 0 0-.5-.5h-2.5v-3h1.482c2.356 0 4.448-2.035 4.518-4.381.01-.039 0-2.119 0-2.119a.5.5 0 0 0-1 0v1.5h-5v-3.5a.5.5 0 0 0-.5-.5h-1.5v-3h1.482c2.356 0 4.448-2.035 4.518-4.381.01-.039 0-2.119 0-2.119a.5.5 0 0 0-1 0v1.5h-6v-3.5a.5.5 0 0 0-.5-.5h-1.5v-3h2.482c.924 0 1.806-.316 2.542-.838 10.685 3.897 18.339 14.145 18.339 26.16zm-7.88 13.621a1.501 1.501 0 1 1 1.5-1.5c0 .827-.673 1.5-1.5 1.5zm-5.483 1.057v3h-2v-3h2zm-11-1v-3h6v3h-6zm5 1v3h-2v-3h2zm-11-1v-3h5v3h-5zm5 1v3h-2v-3h2zm-3 0v3h-2v-3h2zm-12.517-5c-1.803 0-3.195-1.496-3.456-3h32.912c-.261 1.504-1.653 3-3.456 3h-26zm2.517 4v-3h7v3h-7zm7 1v3h-2v-3h2zm-3 0v3h-2v-3h2zm-3 0v3h-2v-3h2zm21.939-32c-.261 1.504-1.653 3-3.456 3h-18c-1.803 0-3.195-1.496-3.456-3h24.912zm-17.939-1v-3h2v3h-2zm9-4h-7v-3h7v3zm2 1v3h-2v-3h2zm-3 0v3h-2v-3h2zm-3 0v3h-2v-3h2zm7 11h-3v-3h3v3zm2 1v3h-2v-3h2zm-3 0v3h-2v-3h2zm-8-1v-3h5v3h-5zm5 1v3h-2v-3h2zm-3 0v3h-2v-3h2zm-6-1v-3h3v3h-3zm3 1v3h-2v-3h2zm17.939 4c-.261 1.504-1.653 3-3.456 3h-22c-1.803 0-3.195-1.496-3.456-3h28.912zm-22.939-1v-3h2v3h-2zm18 9h2v3h-2v-3zm-6-1v-3h5v3h-5zm5 1v3h-2v-3h2zm-3 0v3h-2v-3h2zm-8-1v-3h5v3h-5zm5 1v3h-2v-3h2zm-3 0v3h-2v-3h2zm-9-1v-3h6v3h-6zm6 1v3h-2v-3h2zm-3 0v3h-2v-3h2zm-5 3v-3h2v3h-2zm15 9h2v3h-2v-3zm6 0h2v3h-2v-3zM34.632 16.01c2.779-.867 4.55-1.799 5.352-2.822.801 1.023 2.572 1.955 5.351 2.822.471.146.94.281 1.399.406h-13.5c.457-.125.928-.26 1.398-.406zm15.79 1.406c-.261 1.504-1.653 3-3.456 3h-14c-1.803 0-3.195-1.496-3.456-3h20.912zm-19.969 3.178a4.358 4.358 0 0 0 2.513.822h2.518v3h-1.5a.5.5 0 0 0-.5.5v3.5h-6v-1.5a.5.5 0 0 0-1 0v2c0 2.396 2.085 4.5 4.482 4.5h1.518v3h-1.5a.5.5 0 0 0-.5.5v3.5h-5v-1.5a.5.5 0 0 0-1 0v2c0 2.396 2.085 4.5 4.482 4.5h.518v3h-1.5a.5.5 0 0 0-.5.5v3.5h-4v-1.5a.5.5 0 0 0-1 0v2c0 2.396 2.085 4.5 4.482 4.5h1.518v3h-3.5a.5.5 0 0 0-.5.5v3.5h-4v-3.111a2.505 2.505 0 0 0 1.982-2.445c0-1.379-1.122-2.5-2.5-2.5a2.502 2.502 0 0 0-2.5 2.5c0 1.213.869 2.225 2.018 2.451v3.105h-.982a27.719 27.719 0 0 1-6.347-17.678c-.001-12 7.635-22.238 18.298-26.144zm-2.97 40.822v3h-2v-3h2zm-7.517-1.057a1.501 1.501 0 1 1 1.5-1.5c0 .827-.673 1.5-1.5 1.5zm13.517 13.448a27.212 27.212 0 0 1-2-.559v-3.832h2v4.391zm-3-.899a28.083 28.083 0 0 1-2-.826v-2.666h2v3.492zm-3-1.306a27.763 27.763 0 0 1-3.613-2.186h3.613v2.186zm7 2.431v-1.617h11v1.623a27.903 27.903 0 0 1-11-.006zm17-1.935c-.655.297-1.32.574-2 .822v-3.504h2v2.682zm-3 1.162c-.656.209-1.324.393-2 .555v-4.398h2v3.843zm-3-1.844h-11v-2h11v2zm7 .203v-2.203h3.646a27.83 27.83 0 0 1-3.646 2.203zm4.968-3.203H22.549a28.227 28.227 0 0 1-3.184-3h41.27a28.057 28.057 0 0 1-3.184 3z"/>
    </symbol></svg>